<svg id="logo" viewBox="0 0 37 37" fill="none" xmlns="http://www.w3.org/2000/svg">
    <path fill-rule="evenodd" clip-rule="evenodd" d="M18.5 37C28.7173 37 37 28.7173 37 18.5C37 8.28273 28.7173 0 18.5 0C8.28273 0 0 8.28273 0 18.5C0 28.7173 8.28273 37 18.5 37Z" fill="black"/>
    <path fill-rule="evenodd" clip-rule="evenodd" d="M22.0649 11.248C22.0409 11.272 21.9929 11.296 21.9689 11.296C21.8969 11.296 21.8729 11.272 21.8729 11.2C21.8729 11.176 21.8969 11.128 21.9449 11.08C22.8897 10.1849 23.8918 8.79754 24.5241 7.92207L24.5242 7.92204C24.8074 7.52993 25.0164 7.24051 25.1129 7.144C25.2329 7.024 25.4729 7 25.7369 7C25.9529 7 26.1449 7 26.2169 7.072C26.2889 7.144 26.2889 7.312 26.2889 7.576C26.2889 7.72485 26.1759 7.83602 26.0333 7.97627C26.0149 7.99432 25.9961 8.01285 25.9769 8.032C25.8713 8.13758 25.5762 8.35692 25.18 8.65128C24.3155 9.29368 22.9701 10.2934 22.0649 11.248ZM13.3769 24.136C14.5529 23.8 19.0169 19.36 21.7049 16.144C20.1929 14.176 19.2809 13.696 18.3449 13.696C16.6649 13.696 14.4569 16.072 13.4969 19C12.7289 21.376 12.7289 23.392 13.3769 24.136ZM19.2391 19.5476C18.4101 20.7613 17.4108 22.2244 17.5049 23.392C17.5289 23.872 17.7689 24.736 18.2729 25.312C18.3449 25.456 19.4009 25.456 19.6169 25.336C21.1529 24.4 22.5209 23.104 23.4089 22.24L23.2649 22.072C22.3289 23.08 20.9849 23.92 20.3849 24.184C19.9049 24.016 19.5449 23.584 19.5209 23.176C19.4249 21.16 23.3369 15.256 24.8969 13.288C24.8969 13.24 24.8969 13.192 24.8729 13.168C24.8489 13.12 24.7769 13.144 24.6809 13.24C24.1289 13.816 23.3609 14.584 23.0009 14.872C21.5849 13.336 20.9129 13.12 19.7369 13.12C17.6489 13.12 13.2569 15.496 11.7209 19.312C10.7369 21.64 10.7369 24.448 11.8649 25.336C11.9849 25.432 12.6089 25.504 12.8249 25.336C14.8169 23.608 17.7449 20.848 19.8569 18.616C19.6812 18.9002 19.4665 19.2145 19.2391 19.5476Z" fill="white"/>
</svg>
